<svg width="165" height="135" viewBox="0 0 165 135" fill="none" xmlns="http://www.w3.org/2000/svg">
<rect y="1" width="163.977" height="133" fill="white"/>
<path d="M44.9406 118.817H37.653V124.89H44.9406V118.817Z" fill="white" stroke="#27255F" stroke-width="0.3"/>
<path d="M53.4429 118.817H46.1553V124.89H53.4429V118.817Z" fill="white" stroke="#27255F" stroke-width="0.3"/>
<path d="M44.9406 111.53H37.653V117.603H44.9406V111.53Z" fill="white" stroke="#27255F" stroke-width="0.3"/>
<path d="M53.4429 111.53H46.1553V117.603H53.4429V114.566V111.53Z" fill="white" stroke="#27255F" stroke-width="0.3"/>
<path d="M16.7356 116.069L1.57016 132.318C0.973558 132.957 1.42684 134 2.30122 134H8.68558C8.95658 134 9.21597 133.89 9.40437 133.695L44.6459 97.2591C44.8343 97.0643 45.0937 96.9543 45.3646 96.9543H45.7093C45.9931 96.9543 46.2636 97.0749 46.4532 97.2861L78.1657 132.589C78.2815 132.718 78.4289 132.814 78.5934 132.869L81.8323 133.949C81.9343 133.983 82.0411 134 82.1486 134H128.516C129.35 134 129.818 133.039 129.303 132.383L113.133 111.752C113.019 111.607 112.867 111.496 112.694 111.431L47.5379 87.2997C47.4268 87.2585 47.3092 87.2374 47.1906 87.2374H45.3549C45.0896 87.2374 44.8353 87.3428 44.6477 87.5303L27.6217 104.556C27.4341 104.744 27.3288 104.998 27.3288 105.264V105.76C27.3288 106.263 26.9209 106.671 26.4178 106.671C25.9147 106.671 25.5068 106.263 25.5068 105.76C25.5068 105.257 25.099 104.849 24.5959 104.849H18.0046C17.4523 104.849 17.0046 105.297 17.0046 105.849V115.387C17.0046 115.64 16.9084 115.884 16.7356 116.069Z" fill="white" stroke="#27255F" stroke-width="0.3"/>
<path d="M83.5514 50.3696L68.4491 60.8251C68.1793 61.0118 68.0183 61.3191 68.0183 61.6472V62.8465C68.0183 63.6555 68.9289 64.1296 69.5917 63.6657L80.0451 56.3483C80.1228 56.294 80.2152 56.2648 80.3099 56.2648C80.565 56.2648 80.7717 56.4716 80.7717 56.7266V96.2657C80.7717 96.6804 81.0276 97.052 81.415 97.2L114.012 109.646C114.119 109.687 114.218 109.746 114.305 109.82L115.871 111.159C115.951 111.227 116.054 111.265 116.159 111.265C116.404 111.265 116.603 111.067 116.603 110.822V44.5611C116.603 44.2793 116.722 44.0107 116.93 43.8212L129.713 32.2004C129.874 32.0538 130.084 31.9726 130.302 31.9726C130.786 31.9726 131.178 32.3648 131.178 32.8486V133C131.178 133.552 131.626 134 132.178 134H149.005C149.557 134 150.005 133.552 150.005 133V31.2351C150.005 30.9333 149.868 30.6477 149.634 30.4578L137.526 20.6565C137.348 20.5124 137.126 20.4338 136.897 20.4338H136.451C136.186 20.4338 135.931 20.5391 135.744 20.7267L132.037 24.4334C131.876 24.5944 131.657 24.6849 131.43 24.6849C130.955 24.6849 130.571 24.3004 130.571 23.8261V17.9212C130.571 17.5931 130.41 17.2858 130.14 17.099L107.143 1.17781C106.975 1.06203 106.777 1 106.573 1H105.353C105.164 1 104.979 1.05331 104.82 1.15377L89.1339 11.03C88.8431 11.2131 88.6667 11.5327 88.6667 11.8763V13.796C88.6667 14.5761 89.5202 15.0558 90.1866 14.6502L102.521 7.14221C102.595 7.09698 102.681 7.07306 102.768 7.07306C103.03 7.07306 103.242 7.28541 103.242 7.54736V60.808C103.242 61.3176 102.829 61.7306 102.319 61.7306C102.129 61.7306 101.944 61.6719 101.789 61.5625L85.889 50.374C85.7206 50.2554 85.5196 50.1918 85.3136 50.1918H84.1206C83.9172 50.1918 83.7186 50.2538 83.5514 50.3696Z" fill="#D54F33" stroke="#D54F33" stroke-width="0.5"/>
<path d="M152.434 133V34.3942C152.434 33.6066 153.302 33.1281 153.968 33.5487L163.507 39.5732C163.797 39.7564 163.973 40.0756 163.973 40.4187V133C163.973 133.552 163.525 134 162.973 134H153.434C152.882 134 152.434 133.552 152.434 133Z" fill="#D54F33" stroke="#D54F33" stroke-width="0.5"/>
</svg>
