<svg width="136" height="111" viewBox="0 0 136 111" fill="none" xmlns="http://www.w3.org/2000/svg">
<path d="M37 98H31V103H37V98Z" fill="#27255F" stroke="#27255F" stroke-width="0.3"/>
<path d="M44 98H38V103H44V98Z" fill="#27255F" stroke="#27255F" stroke-width="0.3"/>
<path d="M37 92H31V97H37V92Z" fill="#27255F" stroke="#27255F" stroke-width="0.3"/>
<path d="M44 92H38V97H44V94.5V92Z" fill="#27255F" stroke="#27255F" stroke-width="0.3"/>
<path d="M13.7311 95.7882L1.57016 108.818C0.973558 109.457 1.42684 110.5 2.30122 110.5H7.07599C7.34699 110.5 7.60638 110.39 7.79478 110.195L36.7052 80.3048C36.8936 80.11 37.153 80 37.424 80H37.5541C37.8379 80 38.1083 80.1206 38.298 80.3317L64.3232 109.303C64.4391 109.432 64.5865 109.529 64.7509 109.584L67.346 110.449C67.448 110.483 67.5548 110.5 67.6623 110.5H105.446C106.28 110.5 106.747 109.539 106.233 108.883L93.1745 92.2226C93.0604 92.0771 92.9082 91.966 92.7347 91.9018L39.1681 72.0623C39.0569 72.0211 38.9393 72 38.8208 72H37.4142C37.149 72 36.8946 72.1054 36.7071 72.2929L22.7929 86.2071C22.6054 86.3946 22.5 86.649 22.5 86.9142V87.25C22.5 87.6642 22.1642 88 21.75 88C21.3358 88 21 87.6642 21 87.25C21 86.8358 20.6642 86.5 20.25 86.5H15C14.4477 86.5 14 86.9477 14 87.5V95.1058C14 95.3591 13.9039 95.603 13.7311 95.7882Z" fill="#27255F" stroke="#27255F" stroke-width="0.3"/>
<path d="M68.7432 41.6778L56.4308 50.2018C56.161 50.3885 56 50.6958 56 51.024V51.5793C56 52.3884 56.9107 52.8625 57.5735 52.3986L65.9018 46.5687C65.9657 46.524 66.0418 46.5 66.1198 46.5C66.3298 46.5 66.5 46.6702 66.5 46.8802V79.3114C66.5 79.7261 66.7559 80.0977 67.1433 80.2456L93.8384 90.4383C93.9453 90.4791 94.0445 90.538 94.1315 90.6124L95.3975 91.6946C95.4637 91.7511 95.5478 91.7822 95.6348 91.7822C95.8365 91.7822 96 91.6187 96 91.417V36.9424C96 36.6606 96.1189 36.392 96.3273 36.2024L106.794 26.6876C106.926 26.5669 107.099 26.5 107.279 26.5C107.677 26.5 108 26.8229 108 27.2212V109.5C108 110.052 108.448 110.5 109 110.5H122.5C123.052 110.5 123.5 110.052 123.5 109.5V25.9771C123.5 25.6753 123.364 25.3897 123.129 25.1998L113.275 17.2228C113.097 17.0786 112.875 17 112.646 17H112.414C112.149 17 111.895 17.1054 111.707 17.2929L108.707 20.2929C108.574 20.4255 108.395 20.5 108.207 20.5C107.817 20.5 107.5 20.1834 107.5 19.7929V15.024C107.5 14.6958 107.339 14.3885 107.069 14.2018L88.2568 1.17781C88.0896 1.06203 87.891 1 87.6876 1H86.7886C86.6 1 86.4153 1.05331 86.2558 1.15377L73.4672 9.20585C73.1764 9.38892 73 9.70847 73 10.0521V11.2206C73 12.0008 73.8535 12.4804 74.5199 12.0748L84.4065 6.05694C84.4676 6.0197 84.5379 6 84.6095 6C84.8252 6 85 6.17483 85 6.3905V50.2405C85 50.6599 84.6599 51 84.2405 51C84.084 51 83.9313 50.9517 83.8034 50.8616L70.7589 41.6822C70.5904 41.5636 70.3894 41.5 70.1834 41.5H69.3124C69.109 41.5 68.9104 41.562 68.7432 41.6778Z" fill="#D54F33" stroke="#D54F33" stroke-width="0.5"/>
<path d="M125.5 109.5V28.8143C125.5 28.0268 126.368 27.5483 127.034 27.9688L134.534 32.7057C134.824 32.8889 135 33.2081 135 33.5512V109.5C135 110.052 134.552 110.5 134 110.5H126.5C125.948 110.5 125.5 110.052 125.5 109.5Z" fill="#D54F33" stroke="#D54F33" stroke-width="0.5"/>
</svg>
